<svg width="19" height="22" viewBox="0 0 19 22" fill="none" xmlns="http://www.w3.org/2000/svg">
<path d="M0.983823 0.880163C0.978667 0.881881 0.97523 0.892194 0.970073 0.893913C0.958042 0.895631 0.940854 0.890475 0.928823 0.893913C0.836011 0.904225 0.750073 0.942038 0.681323 1.00391C0.385698 1.16548 0.200073 1.49719 0.200073 1.85641V20.2402C0.200073 20.5134 0.320386 20.8005 0.543823 20.9689C0.646948 21.0841 0.803355 21.1356 0.956323 21.1064C1.15742 21.1167 1.36882 21.072 1.54757 20.9689C1.92054 20.7523 9.53632 16.3489 9.53632 16.3489L13.5101 14.0527C13.5187 14.0492 13.529 14.0441 13.5376 14.0389L13.5926 14.0114C13.5926 14.0114 13.6459 13.9839 13.6476 13.9839C13.6527 13.9788 13.6562 13.9753 13.6613 13.9702C13.7799 13.9014 17.0352 12.028 17.4838 11.7702C17.7932 11.5914 18.039 11.3009 18.0338 10.9452C18.0287 10.5894 17.7777 10.3127 17.4976 10.1614C17.3429 10.0789 16.3391 9.50485 15.4076 8.96516C14.476 8.42547 13.5926 7.90641 13.5926 7.90641L9.53632 5.56891C9.53632 5.56891 2.16117 1.30985 1.72632 1.05891C1.57335 0.971256 1.39976 0.900788 1.23132 0.880163C1.1471 0.86985 1.06632 0.866413 0.983823 0.880163ZM1.08007 2.06266L10.0451 10.9589L1.08007 19.8552V2.06266ZM3.17007 2.90141C5.40789 4.19391 9.09632 6.32516 9.09632 6.32516L12.6438 8.37391L10.6638 10.3402L3.17007 2.90141ZM13.4276 8.82766C13.639 8.95141 14.1769 9.26423 14.9676 9.72141C15.8991 10.2611 16.8548 10.8077 17.0851 10.9314C17.1074 10.9434 17.1005 10.9503 17.1126 10.9589C17.0954 10.9709 17.0902 10.9744 17.0438 11.0002C16.621 11.2442 13.8796 12.8358 13.4413 13.0902L11.2826 10.9589L13.4276 8.82766ZM10.6638 11.5639L12.6576 13.5439L9.09632 15.5927C9.09632 15.5927 5.50414 17.6655 3.18382 19.0027L10.6638 11.5639Z" fill="white"/>
</svg>
