<svg width="23" height="20" viewBox="0 0 23 20" fill="none" xmlns="http://www.w3.org/2000/svg">
<path d="M21.643 0.00147142C21.3882 0.0121584 21.1403 0.0799552 20.9166 0.165582C20.6953 0.250636 19.4209 0.770703 17.539 1.54001C15.6572 2.30931 13.2109 3.31111 10.7859 4.30449C5.93603 6.29125 1.17017 8.24607 1.17017 8.24607L1.2049 8.23337C1.2049 8.23337 0.917257 8.3253 0.625626 8.51959C0.47981 8.61673 0.322936 8.74214 0.194489 8.92498C0.0660429 9.10782 -0.02786 9.36694 0.0075275 9.64101C0.131824 10.6037 1.17527 10.8767 1.17527 10.8767L1.17936 10.8787L5.83604 12.4026C5.95477 12.7813 7.24843 16.9097 7.533 17.784C7.69016 18.2674 7.83726 18.5462 7.9907 18.7364C8.06748 18.8316 8.14795 18.9053 8.23692 18.9592C8.27227 18.9806 8.30945 18.9966 8.34624 19.0109C8.34702 19.0113 8.34749 19.0106 8.34828 19.0109C8.3528 19.0128 8.35705 19.013 8.36156 19.0148L8.3493 19.0119C8.35785 19.0152 8.36628 19.0208 8.37484 19.0236C8.39144 19.0292 8.40162 19.029 8.42286 19.0334C8.95617 19.2115 9.39751 18.881 9.39751 18.881L9.4159 18.8673L12.2765 16.3305L16.9189 19.7914L16.9771 19.8168C17.7897 20.1618 18.5246 19.9694 18.9316 19.6527C19.3385 19.3361 19.4986 18.9279 19.4986 18.9279L19.5159 18.8849L22.9272 1.88484C23.0145 1.50451 23.0269 1.17575 22.9446 0.878681C22.8623 0.581611 22.6623 0.32337 22.4113 0.180235C22.1603 0.0370997 21.8978 -0.0092155 21.643 0.00147142ZM21.6706 1.01837C21.7741 1.01379 21.8508 1.0251 21.8749 1.03888C21.8991 1.05267 21.91 1.05086 21.9332 1.13462C21.9564 1.21838 21.9689 1.3948 21.9056 1.67091L21.9035 1.67677L18.5117 18.5782C18.5036 18.5952 18.4329 18.7516 18.2716 18.8771C18.1069 19.0052 17.9238 19.1052 17.4379 18.9103L12.3613 15.125L12.2183 15.0176L12.2152 15.0205L10.6971 13.9313L19.2289 4.33379C19.2944 4.26024 19.3363 4.1701 19.3494 4.07427C19.3625 3.97845 19.3463 3.88104 19.3028 3.79383C19.2592 3.70662 19.1902 3.63334 19.104 3.58286C19.0178 3.53237 18.9182 3.50683 18.8171 3.50933C18.7184 3.51179 18.6224 3.54091 18.5403 3.59334L6.19464 11.4628L1.53081 9.93602C1.53081 9.93602 1.06769 9.68961 1.04552 9.51793C1.04429 9.50842 1.03883 9.51703 1.06289 9.48276C1.08696 9.44851 1.14745 9.39067 1.22329 9.34014C1.37497 9.23909 1.54818 9.17799 1.54818 9.17799L1.56554 9.17212L1.58291 9.16529C1.58291 9.16529 6.34903 7.21036 11.1987 5.2237C13.6235 4.23038 16.0694 3.22931 17.9508 2.4602C19.8317 1.69128 21.1908 1.13782 21.3059 1.09359C21.4369 1.04342 21.5671 1.02295 21.6706 1.01837ZM16.0127 6.40667L9.54259 13.6852L9.53952 13.6881C9.52942 13.6997 9.51988 13.7118 9.51092 13.7242C9.50065 13.7378 9.49111 13.7518 9.48231 13.7662C9.44596 13.8252 9.42266 13.8907 9.41386 13.9587C9.41385 13.96 9.41385 13.9613 9.41386 13.9626L8.571 17.5867C8.55699 17.5475 8.54717 17.5332 8.53218 17.4871V17.4861C8.26447 16.6636 7.04393 12.7701 6.87506 12.2316L16.0127 6.40667ZM10.2731 14.8779L11.4357 15.7121L9.72751 17.2262L10.2731 14.8779Z" fill="white" fill-opacity="0.8"/>
</svg>
