<svg width="26" height="18" viewBox="0 0 26 18" fill="none" xmlns="http://www.w3.org/2000/svg">
<path d="M12.9116 0C8.93014 0 5.1892 0.281536 3.19845 0.675229C1.87292 0.954476 0.724132 1.79908 0.483573 3.09461C0.243014 4.44278 0 6.46846 0 9C0 11.5315 0.240559 13.5 0.542485 14.9054C0.785498 16.1437 1.93184 17.0455 3.25736 17.3248C5.37085 17.7185 8.98905 18 12.9705 18C16.9545 18 20.5702 17.7185 22.6813 17.3248C24.0117 17.0455 25.1556 16.2009 25.3961 14.9054C25.6392 13.5 25.9411 11.4766 26 8.94507C26 6.41353 25.6981 4.38784 25.3961 2.98245C25.1556 1.74415 24.0117 0.842319 22.6813 0.563072C20.5702 0.281536 16.8931 0 12.9116 0ZM12.9116 1.12386C17.254 1.12386 20.7519 1.46033 22.4407 1.74186C23.3465 1.96846 24.0706 2.53154 24.1909 3.2617C24.5542 5.06307 24.7923 6.9766 24.7923 8.94507C24.7334 11.3622 24.4339 13.3306 24.1909 14.7383C24.0117 15.8049 22.804 16.1437 22.4407 16.2581C20.2683 16.6518 16.6501 16.9311 13.0295 16.9311C9.41125 16.9311 5.73168 16.7068 3.62066 16.2581C2.71488 16.0315 1.99075 15.4685 1.87292 14.7383C1.38935 13.1612 1.2077 11.0806 1.2077 9C1.2077 6.41124 1.45072 4.5 1.69128 3.31892C1.87292 2.25 3.13708 1.91124 3.43901 1.79909C5.42976 1.40539 9.11178 1.12386 12.9116 1.12386ZM9.65181 4.5V13.5L18.0984 9L9.65181 4.5ZM10.8595 6.41353L15.6854 9L10.8595 11.5865V6.41353Z" fill="white"/>
</svg>
