<svg width="24" height="23" viewBox="0 0 24 23" fill="none" xmlns="http://www.w3.org/2000/svg">
<path d="M3.0729 0C2.20802 0 1.45146 0.246632 0.898206 0.693235C0.344951 1.13984 0.00666532 1.80308 0.00666532 2.52631C0.00666532 3.93111 1.26482 5.01929 2.92792 5.08428C2.97458 5.09928 3.0229 5.10594 3.0729 5.10761C3.96944 5.10761 4.73433 4.84431 5.27925 4.37938C5.82584 3.91278 6.13746 3.24121 6.13746 2.52631C6.13746 2.51798 6.13746 2.50798 6.13746 2.49965C6.05748 1.08485 4.79932 0 3.0729 0ZM3.0729 1.01152C4.40771 1.01152 5.06595 1.6681 5.12261 2.53964C5.11928 2.96625 4.9543 3.32786 4.62435 3.60949C4.28939 3.89445 3.77447 4.09609 3.0729 4.09609C1.73975 4.09609 1.01819 3.37286 1.01819 2.52631C1.01819 2.1047 1.1915 1.75642 1.53478 1.47979C1.8764 1.20316 2.39966 1.01152 3.0729 1.01152ZM0.51326 6.13747C0.229967 6.13747 0 6.36743 0 6.64906V21.4953C0 21.7786 0.229967 22.0069 0.51326 22.0069H5.63253C5.91416 22.0069 6.14413 21.7786 6.14413 21.4953V6.64906C6.14413 6.36743 5.91416 6.13747 5.63253 6.13747H0.51326ZM8.19217 6.13747C7.90888 6.13747 7.67891 6.36743 7.67891 6.64906V21.4953C7.67891 21.7786 7.90888 22.0069 8.19217 22.0069H13.3114C13.5931 22.0069 13.823 21.7786 13.823 21.4953V13.0482C13.823 12.0533 14.6196 11.2567 15.6145 11.2567C16.6093 11.2567 17.4059 12.0533 17.4059 13.0482V21.4953C17.4059 21.7786 17.6358 22.0069 17.9175 22.0069H23.0367C23.32 22.0069 23.55 21.7786 23.55 21.4953V12.7932C23.55 10.6802 22.9284 9.00706 21.8819 7.86555C20.837 6.72405 19.3773 6.13747 17.8091 6.13747C15.8111 6.13747 14.6013 6.86736 13.823 7.46894V6.64906C13.823 6.36743 13.5931 6.13747 13.3114 6.13747H8.19217ZM1.02485 7.16065H5.11928V20.9837H1.02485V7.16065ZM8.70377 7.16065H12.7982V8.51213C12.7982 8.72377 12.9298 8.91374 13.1281 8.99039C13.3264 9.06538 13.5497 9.01206 13.6914 8.85375C13.6914 8.85375 15.2095 7.16065 17.8091 7.16065C19.1256 7.16065 20.2805 7.63392 21.127 8.55712C21.9752 9.48033 22.5251 10.8785 22.5251 12.7932V20.9837H18.4307V13.0482C18.4307 12.9765 18.4157 12.9048 18.3874 12.8382C18.2741 11.3917 17.0892 10.2336 15.6145 10.2336C14.0663 10.2336 12.7982 11.5 12.7982 13.0482V20.9837H8.70377V7.16065Z" fill="white"/>
</svg>
