<svg width="23" height="23" viewBox="0 0 23 23" fill="none" xmlns="http://www.w3.org/2000/svg">
<g filter="url(#filter0_b_136_64)">
<rect width="23" height="23" rx="11.5" fill="#BEADFF" fill-opacity="0.3"/>
</g>
<path fill-rule="evenodd" clip-rule="evenodd" d="M7.30057 9C7.04693 9 6.90775 9.29521 7.06913 9.49089L10.9033 14.1396L11.0608 14.3305C11.1808 14.476 11.4037 14.476 11.5237 14.3305L11.6811 14.1396L15.5153 9.49089C15.6767 9.29521 15.5375 9 15.2839 9C15.1943 9 15.1094 9.04002 15.0524 9.10911L11.5237 13.3875C11.4037 13.533 11.1808 13.533 11.0608 13.3875L7.53201 9.10911C7.47502 9.04002 7.39014 9 7.30057 9Z" fill="white" fill-opacity="0.7"/>
<g filter="url(#filter1_f_136_64)">
<path fill-rule="evenodd" clip-rule="evenodd" d="M7.30057 9C7.04693 9 6.90775 9.29521 7.06913 9.49089L10.9033 14.1396L11.0608 14.3305C11.1808 14.476 11.4037 14.476 11.5237 14.3305L11.6811 14.1396L15.5153 9.49089C15.6767 9.29521 15.5375 9 15.2839 9C15.1943 9 15.1094 9.04002 15.0524 9.10911L11.5237 13.3875C11.4037 13.533 11.1808 13.533 11.0608 13.3875L7.53201 9.10911C7.47502 9.04002 7.39014 9 7.30057 9Z" fill="white" fill-opacity="0.7"/>
</g>
<g filter="url(#filter2_f_136_64)">
<path fill-rule="evenodd" clip-rule="evenodd" d="M7.30057 9C7.04693 9 6.90775 9.29521 7.06913 9.49089L10.9033 14.1396L11.0608 14.3305C11.1808 14.476 11.4037 14.476 11.5237 14.3305L11.6811 14.1396L15.5153 9.49089C15.6767 9.29521 15.5375 9 15.2839 9C15.1943 9 15.1094 9.04002 15.0524 9.10911L11.5237 13.3875C11.4037 13.533 11.1808 13.533 11.0608 13.3875L7.53201 9.10911C7.47502 9.04002 7.39014 9 7.30057 9Z" fill="white" fill-opacity="0.7"/>
</g>
<g filter="url(#filter3_f_136_64)">
<path fill-rule="evenodd" clip-rule="evenodd" d="M7.30057 9C7.04693 9 6.90775 9.29521 7.06913 9.49089L10.9033 14.1396L11.0608 14.3305C11.1808 14.476 11.4037 14.476 11.5237 14.3305L11.6811 14.1396L15.5153 9.49089C15.6767 9.29521 15.5375 9 15.2839 9C15.1943 9 15.1094 9.04002 15.0524 9.10911L11.5237 13.3875C11.4037 13.533 11.1808 13.533 11.0608 13.3875L7.53201 9.10911C7.47502 9.04002 7.39014 9 7.30057 9Z" fill="white" fill-opacity="0.7"/>
</g>
<g filter="url(#filter4_f_136_64)">
<path fill-rule="evenodd" clip-rule="evenodd" d="M7.30057 9C7.04693 9 6.90775 9.29521 7.06913 9.49089L10.9033 14.1396L11.0608 14.3305C11.1808 14.476 11.4037 14.476 11.5237 14.3305L11.6811 14.1396L15.5153 9.49089C15.6767 9.29521 15.5375 9 15.2839 9C15.1943 9 15.1094 9.04002 15.0524 9.10911L11.5237 13.3875C11.4037 13.533 11.1808 13.533 11.0608 13.3875L7.53201 9.10911C7.47502 9.04002 7.39014 9 7.30057 9Z" fill="white" fill-opacity="0.7"/>
</g>
<defs>
<filter id="filter0_b_136_64" x="-30" y="-30" width="83" height="83" filterUnits="userSpaceOnUse" color-interpolation-filters="sRGB">
<feFlood flood-opacity="0" result="BackgroundImageFix"/>
<feGaussianBlur in="BackgroundImage" stdDeviation="15"/>
<feComposite in2="SourceAlpha" operator="in" result="effect1_backgroundBlur_136_64"/>
<feBlend mode="normal" in="SourceGraphic" in2="effect1_backgroundBlur_136_64" result="shape"/>
</filter>
<filter id="filter1_f_136_64" x="3" y="5" width="16.5845" height="13.4396" filterUnits="userSpaceOnUse" color-interpolation-filters="sRGB">
<feFlood flood-opacity="0" result="BackgroundImageFix"/>
<feBlend mode="normal" in="SourceGraphic" in2="BackgroundImageFix" result="shape"/>
<feGaussianBlur stdDeviation="2" result="effect1_foregroundBlur_136_64"/>
</filter>
<filter id="filter2_f_136_64" x="4" y="6" width="14.5845" height="11.4396" filterUnits="userSpaceOnUse" color-interpolation-filters="sRGB">
<feFlood flood-opacity="0" result="BackgroundImageFix"/>
<feBlend mode="normal" in="SourceGraphic" in2="BackgroundImageFix" result="shape"/>
<feGaussianBlur stdDeviation="1.5" result="effect1_foregroundBlur_136_64"/>
</filter>
<filter id="filter3_f_136_64" x="5" y="7" width="12.5845" height="9.43958" filterUnits="userSpaceOnUse" color-interpolation-filters="sRGB">
<feFlood flood-opacity="0" result="BackgroundImageFix"/>
<feBlend mode="normal" in="SourceGraphic" in2="BackgroundImageFix" result="shape"/>
<feGaussianBlur stdDeviation="1" result="effect1_foregroundBlur_136_64"/>
</filter>
<filter id="filter4_f_136_64" x="6" y="8" width="10.5845" height="7.43958" filterUnits="userSpaceOnUse" color-interpolation-filters="sRGB">
<feFlood flood-opacity="0" result="BackgroundImageFix"/>
<feBlend mode="normal" in="SourceGraphic" in2="BackgroundImageFix" result="shape"/>
<feGaussianBlur stdDeviation="0.5" result="effect1_foregroundBlur_136_64"/>
</filter>
</defs>
</svg>
