<svg width="33" height="33" viewBox="0 0 33 33" fill="none" xmlns="http://www.w3.org/2000/svg">
<mask id="path-1-inside-1_4_212" fill="white">
<path d="M8.77486 16.5C8.55031 16.5 8.36721 16.3178 8.37843 16.0936C8.45177 14.6279 8.92062 13.2066 9.73871 11.9823C10.6322 10.645 11.9022 9.60273 13.3881 8.98726C14.874 8.37179 16.509 8.21076 18.0864 8.52452C19.6638 8.83829 21.1128 9.61276 22.25 10.75C23.3872 11.8872 24.1617 13.3362 24.4755 14.9136C24.7892 16.491 24.6282 18.126 24.0127 19.6119C23.3973 21.0978 22.355 22.3678 21.0177 23.2613C19.7934 24.0794 18.3721 24.5482 16.9064 24.6216C16.6822 24.6328 16.5 24.4497 16.5 24.2251C16.5 24.0006 16.6822 23.8197 16.9064 23.8073C18.2111 23.7347 19.4754 23.3139 20.566 22.5852C21.7695 21.781 22.7075 20.638 23.2615 19.3007C23.8154 17.9634 23.9603 16.4919 23.6779 15.0722C23.3955 13.6526 22.6985 12.3485 21.675 11.325C20.6515 10.3015 19.3474 9.60446 17.9278 9.32207C16.5081 9.03968 15.0366 9.18461 13.6993 9.73854C12.362 10.2925 11.219 11.2305 10.4148 12.434C9.68611 13.5246 9.26528 14.7889 9.19273 16.0936C9.18027 16.3178 8.99941 16.5 8.77486 16.5Z"/>
</mask>
<path d="M8.77486 16.5C8.55031 16.5 8.36721 16.3178 8.37843 16.0936C8.45177 14.6279 8.92062 13.2066 9.73871 11.9823C10.6322 10.645 11.9022 9.60273 13.3881 8.98726C14.874 8.37179 16.509 8.21076 18.0864 8.52452C19.6638 8.83829 21.1128 9.61276 22.25 10.75C23.3872 11.8872 24.1617 13.3362 24.4755 14.9136C24.7892 16.491 24.6282 18.126 24.0127 19.6119C23.3973 21.0978 22.355 22.3678 21.0177 23.2613C19.7934 24.0794 18.3721 24.5482 16.9064 24.6216C16.6822 24.6328 16.5 24.4497 16.5 24.2251C16.5 24.0006 16.6822 23.8197 16.9064 23.8073C18.2111 23.7347 19.4754 23.3139 20.566 22.5852C21.7695 21.781 22.7075 20.638 23.2615 19.3007C23.8154 17.9634 23.9603 16.4919 23.6779 15.0722C23.3955 13.6526 22.6985 12.3485 21.675 11.325C20.6515 10.3015 19.3474 9.60446 17.9278 9.32207C16.5081 9.03968 15.0366 9.18461 13.6993 9.73854C12.362 10.2925 11.219 11.2305 10.4148 12.434C9.68611 13.5246 9.26528 14.7889 9.19273 16.0936C9.18027 16.3178 8.99941 16.5 8.77486 16.5Z" stroke="white" stroke-width="2" stroke-linejoin="round" mask="url(#path-1-inside-1_4_212)"/>
<g filter="url(#filter0_f_4_212)">
<mask id="path-2-inside-2_4_212" fill="white">
<path d="M8.77486 16.5C8.55031 16.5 8.36721 16.3178 8.37843 16.0936C8.45177 14.6279 8.92062 13.2066 9.73871 11.9823C10.6322 10.645 11.9022 9.60273 13.3881 8.98726C14.874 8.37179 16.509 8.21076 18.0864 8.52452C19.6638 8.83829 21.1128 9.61276 22.25 10.75C23.3872 11.8872 24.1617 13.3362 24.4755 14.9136C24.7892 16.491 24.6282 18.126 24.0127 19.6119C23.3973 21.0978 22.355 22.3678 21.0177 23.2613C19.7934 24.0794 18.3721 24.5482 16.9064 24.6216C16.6822 24.6328 16.5 24.4497 16.5 24.2251C16.5 24.0006 16.6822 23.8197 16.9064 23.8073C18.2111 23.7347 19.4754 23.3139 20.566 22.5852C21.7695 21.781 22.7075 20.638 23.2615 19.3007C23.8154 17.9634 23.9603 16.4919 23.6779 15.0722C23.3955 13.6526 22.6985 12.3485 21.675 11.325C20.6515 10.3015 19.3474 9.60446 17.9278 9.32207C16.5081 9.03968 15.0366 9.18461 13.6993 9.73854C12.362 10.2925 11.219 11.2305 10.4148 12.434C9.68611 13.5246 9.26528 14.7889 9.19273 16.0936C9.18027 16.3178 8.99941 16.5 8.77486 16.5Z"/>
</mask>
<path d="M8.77486 16.5C8.55031 16.5 8.36721 16.3178 8.37843 16.0936C8.45177 14.6279 8.92062 13.2066 9.73871 11.9823C10.6322 10.645 11.9022 9.60273 13.3881 8.98726C14.874 8.37179 16.509 8.21076 18.0864 8.52452C19.6638 8.83829 21.1128 9.61276 22.25 10.75C23.3872 11.8872 24.1617 13.3362 24.4755 14.9136C24.7892 16.491 24.6282 18.126 24.0127 19.6119C23.3973 21.0978 22.355 22.3678 21.0177 23.2613C19.7934 24.0794 18.3721 24.5482 16.9064 24.6216C16.6822 24.6328 16.5 24.4497 16.5 24.2251C16.5 24.0006 16.6822 23.8197 16.9064 23.8073C18.2111 23.7347 19.4754 23.3139 20.566 22.5852C21.7695 21.781 22.7075 20.638 23.2615 19.3007C23.8154 17.9634 23.9603 16.4919 23.6779 15.0722C23.3955 13.6526 22.6985 12.3485 21.675 11.325C20.6515 10.3015 19.3474 9.60446 17.9278 9.32207C16.5081 9.03968 15.0366 9.18461 13.6993 9.73854C12.362 10.2925 11.219 11.2305 10.4148 12.434C9.68611 13.5246 9.26528 14.7889 9.19273 16.0936C9.18027 16.3178 8.99941 16.5 8.77486 16.5Z" stroke="white" stroke-width="2" stroke-linejoin="round" mask="url(#path-2-inside-2_4_212)"/>
</g>
<g filter="url(#filter1_f_4_212)">
<mask id="path-3-inside-3_4_212" fill="white">
<path d="M8.77486 16.5C8.55031 16.5 8.36721 16.3178 8.37843 16.0936C8.45177 14.6279 8.92062 13.2066 9.73871 11.9823C10.6322 10.645 11.9022 9.60273 13.3881 8.98726C14.874 8.37179 16.509 8.21076 18.0864 8.52452C19.6638 8.83829 21.1128 9.61276 22.25 10.75C23.3872 11.8872 24.1617 13.3362 24.4755 14.9136C24.7892 16.491 24.6282 18.126 24.0127 19.6119C23.3973 21.0978 22.355 22.3678 21.0177 23.2613C19.7934 24.0794 18.3721 24.5482 16.9064 24.6216C16.6822 24.6328 16.5 24.4497 16.5 24.2251C16.5 24.0006 16.6822 23.8197 16.9064 23.8073C18.2111 23.7347 19.4754 23.3139 20.566 22.5852C21.7695 21.781 22.7075 20.638 23.2615 19.3007C23.8154 17.9634 23.9603 16.4919 23.6779 15.0722C23.3955 13.6526 22.6985 12.3485 21.675 11.325C20.6515 10.3015 19.3474 9.60446 17.9278 9.32207C16.5081 9.03968 15.0366 9.18461 13.6993 9.73854C12.362 10.2925 11.219 11.2305 10.4148 12.434C9.68611 13.5246 9.26528 14.7889 9.19273 16.0936C9.18027 16.3178 8.99941 16.5 8.77486 16.5Z"/>
</mask>
<path d="M8.77486 16.5C8.55031 16.5 8.36721 16.3178 8.37843 16.0936C8.45177 14.6279 8.92062 13.2066 9.73871 11.9823C10.6322 10.645 11.9022 9.60273 13.3881 8.98726C14.874 8.37179 16.509 8.21076 18.0864 8.52452C19.6638 8.83829 21.1128 9.61276 22.25 10.75C23.3872 11.8872 24.1617 13.3362 24.4755 14.9136C24.7892 16.491 24.6282 18.126 24.0127 19.6119C23.3973 21.0978 22.355 22.3678 21.0177 23.2613C19.7934 24.0794 18.3721 24.5482 16.9064 24.6216C16.6822 24.6328 16.5 24.4497 16.5 24.2251C16.5 24.0006 16.6822 23.8197 16.9064 23.8073C18.2111 23.7347 19.4754 23.3139 20.566 22.5852C21.7695 21.781 22.7075 20.638 23.2615 19.3007C23.8154 17.9634 23.9603 16.4919 23.6779 15.0722C23.3955 13.6526 22.6985 12.3485 21.675 11.325C20.6515 10.3015 19.3474 9.60446 17.9278 9.32207C16.5081 9.03968 15.0366 9.18461 13.6993 9.73854C12.362 10.2925 11.219 11.2305 10.4148 12.434C9.68611 13.5246 9.26528 14.7889 9.19273 16.0936C9.18027 16.3178 8.99941 16.5 8.77486 16.5Z" stroke="white" stroke-width="2" stroke-linejoin="round" mask="url(#path-3-inside-3_4_212)"/>
</g>
<g filter="url(#filter2_f_4_212)">
<mask id="path-4-inside-4_4_212" fill="white">
<path d="M8.77486 16.5C8.55031 16.5 8.36721 16.3178 8.37843 16.0936C8.45177 14.6279 8.92062 13.2066 9.73871 11.9823C10.6322 10.645 11.9022 9.60273 13.3881 8.98726C14.874 8.37179 16.509 8.21076 18.0864 8.52452C19.6638 8.83829 21.1128 9.61276 22.25 10.75C23.3872 11.8872 24.1617 13.3362 24.4755 14.9136C24.7892 16.491 24.6282 18.126 24.0127 19.6119C23.3973 21.0978 22.355 22.3678 21.0177 23.2613C19.7934 24.0794 18.3721 24.5482 16.9064 24.6216C16.6822 24.6328 16.5 24.4497 16.5 24.2251C16.5 24.0006 16.6822 23.8197 16.9064 23.8073C18.2111 23.7347 19.4754 23.3139 20.566 22.5852C21.7695 21.781 22.7075 20.638 23.2615 19.3007C23.8154 17.9634 23.9603 16.4919 23.6779 15.0722C23.3955 13.6526 22.6985 12.3485 21.675 11.325C20.6515 10.3015 19.3474 9.60446 17.9278 9.32207C16.5081 9.03968 15.0366 9.18461 13.6993 9.73854C12.362 10.2925 11.219 11.2305 10.4148 12.434C9.68611 13.5246 9.26528 14.7889 9.19273 16.0936C9.18027 16.3178 8.99941 16.5 8.77486 16.5Z"/>
</mask>
<path d="M8.77486 16.5C8.55031 16.5 8.36721 16.3178 8.37843 16.0936C8.45177 14.6279 8.92062 13.2066 9.73871 11.9823C10.6322 10.645 11.9022 9.60273 13.3881 8.98726C14.874 8.37179 16.509 8.21076 18.0864 8.52452C19.6638 8.83829 21.1128 9.61276 22.25 10.75C23.3872 11.8872 24.1617 13.3362 24.4755 14.9136C24.7892 16.491 24.6282 18.126 24.0127 19.6119C23.3973 21.0978 22.355 22.3678 21.0177 23.2613C19.7934 24.0794 18.3721 24.5482 16.9064 24.6216C16.6822 24.6328 16.5 24.4497 16.5 24.2251C16.5 24.0006 16.6822 23.8197 16.9064 23.8073C18.2111 23.7347 19.4754 23.3139 20.566 22.5852C21.7695 21.781 22.7075 20.638 23.2615 19.3007C23.8154 17.9634 23.9603 16.4919 23.6779 15.0722C23.3955 13.6526 22.6985 12.3485 21.675 11.325C20.6515 10.3015 19.3474 9.60446 17.9278 9.32207C16.5081 9.03968 15.0366 9.18461 13.6993 9.73854C12.362 10.2925 11.219 11.2305 10.4148 12.434C9.68611 13.5246 9.26528 14.7889 9.19273 16.0936C9.18027 16.3178 8.99941 16.5 8.77486 16.5Z" stroke="white" stroke-width="2" stroke-linejoin="round" mask="url(#path-4-inside-4_4_212)"/>
</g>
<g filter="url(#filter3_f_4_212)">
<mask id="path-5-inside-5_4_212" fill="white">
<path d="M8.77486 16.5C8.55031 16.5 8.36721 16.3178 8.37843 16.0936C8.45177 14.6279 8.92062 13.2066 9.73871 11.9823C10.6322 10.645 11.9022 9.60273 13.3881 8.98726C14.874 8.37179 16.509 8.21076 18.0864 8.52452C19.6638 8.83829 21.1128 9.61276 22.25 10.75C23.3872 11.8872 24.1617 13.3362 24.4755 14.9136C24.7892 16.491 24.6282 18.126 24.0127 19.6119C23.3973 21.0978 22.355 22.3678 21.0177 23.2613C19.7934 24.0794 18.3721 24.5482 16.9064 24.6216C16.6822 24.6328 16.5 24.4497 16.5 24.2251C16.5 24.0006 16.6822 23.8197 16.9064 23.8073C18.2111 23.7347 19.4754 23.3139 20.566 22.5852C21.7695 21.781 22.7075 20.638 23.2615 19.3007C23.8154 17.9634 23.9603 16.4919 23.6779 15.0722C23.3955 13.6526 22.6985 12.3485 21.675 11.325C20.6515 10.3015 19.3474 9.60446 17.9278 9.32207C16.5081 9.03968 15.0366 9.18461 13.6993 9.73854C12.362 10.2925 11.219 11.2305 10.4148 12.434C9.68611 13.5246 9.26528 14.7889 9.19273 16.0936C9.18027 16.3178 8.99941 16.5 8.77486 16.5Z"/>
</mask>
<path d="M8.77486 16.5C8.55031 16.5 8.36721 16.3178 8.37843 16.0936C8.45177 14.6279 8.92062 13.2066 9.73871 11.9823C10.6322 10.645 11.9022 9.60273 13.3881 8.98726C14.874 8.37179 16.509 8.21076 18.0864 8.52452C19.6638 8.83829 21.1128 9.61276 22.25 10.75C23.3872 11.8872 24.1617 13.3362 24.4755 14.9136C24.7892 16.491 24.6282 18.126 24.0127 19.6119C23.3973 21.0978 22.355 22.3678 21.0177 23.2613C19.7934 24.0794 18.3721 24.5482 16.9064 24.6216C16.6822 24.6328 16.5 24.4497 16.5 24.2251C16.5 24.0006 16.6822 23.8197 16.9064 23.8073C18.2111 23.7347 19.4754 23.3139 20.566 22.5852C21.7695 21.781 22.7075 20.638 23.2615 19.3007C23.8154 17.9634 23.9603 16.4919 23.6779 15.0722C23.3955 13.6526 22.6985 12.3485 21.675 11.325C20.6515 10.3015 19.3474 9.60446 17.9278 9.32207C16.5081 9.03968 15.0366 9.18461 13.6993 9.73854C12.362 10.2925 11.219 11.2305 10.4148 12.434C9.68611 13.5246 9.26528 14.7889 9.19273 16.0936C9.18027 16.3178 8.99941 16.5 8.77486 16.5Z" stroke="white" stroke-width="2" stroke-linejoin="round" mask="url(#path-5-inside-5_4_212)"/>
</g>
<defs>
<filter id="filter0_f_4_212" x="0.377945" y="0.368286" width="32.2538" height="32.2538" filterUnits="userSpaceOnUse" color-interpolation-filters="sRGB">
<feFlood flood-opacity="0" result="BackgroundImageFix"/>
<feBlend mode="normal" in="SourceGraphic" in2="BackgroundImageFix" result="shape"/>
<feGaussianBlur stdDeviation="4" result="effect1_foregroundBlur_4_212"/>
</filter>
<filter id="filter1_f_4_212" x="2.37794" y="2.36829" width="28.2538" height="28.2538" filterUnits="userSpaceOnUse" color-interpolation-filters="sRGB">
<feFlood flood-opacity="0" result="BackgroundImageFix"/>
<feBlend mode="normal" in="SourceGraphic" in2="BackgroundImageFix" result="shape"/>
<feGaussianBlur stdDeviation="3" result="effect1_foregroundBlur_4_212"/>
</filter>
<filter id="filter2_f_4_212" x="4.37794" y="4.36829" width="24.2538" height="24.2538" filterUnits="userSpaceOnUse" color-interpolation-filters="sRGB">
<feFlood flood-opacity="0" result="BackgroundImageFix"/>
<feBlend mode="normal" in="SourceGraphic" in2="BackgroundImageFix" result="shape"/>
<feGaussianBlur stdDeviation="2" result="effect1_foregroundBlur_4_212"/>
</filter>
<filter id="filter3_f_4_212" x="6.37794" y="6.36829" width="20.2538" height="20.2538" filterUnits="userSpaceOnUse" color-interpolation-filters="sRGB">
<feFlood flood-opacity="0" result="BackgroundImageFix"/>
<feBlend mode="normal" in="SourceGraphic" in2="BackgroundImageFix" result="shape"/>
<feGaussianBlur stdDeviation="1" result="effect1_foregroundBlur_4_212"/>
</filter>
</defs>
</svg>
