<svg width="20" height="20" viewBox="0 0 20 20" fill="none" xmlns="http://www.w3.org/2000/svg">
<path d="M5.15992 0.755859C2.73493 0.755859 0.759918 2.73087 0.759918 5.15586V14.8359C0.759918 17.2608 2.73493 19.2359 5.15992 19.2359H14.8399C17.2649 19.2359 19.2399 17.2608 19.2399 14.8359V5.15586C19.2399 2.73087 17.2649 0.755859 14.8399 0.755859H5.15992ZM5.15992 1.63586H14.8399C16.7894 1.63586 18.3599 3.20637 18.3599 5.15586V14.8359C18.3599 16.7854 16.7894 18.3559 14.8399 18.3559H5.15992C3.21043 18.3559 1.63992 16.7854 1.63992 14.8359V5.15586C1.63992 3.20637 3.21043 1.63586 5.15992 1.63586ZM8.93172 4.23289C8.76258 4.22207 8.58795 4.25941 8.4307 4.35148C8.01138 4.59744 7.87107 5.13701 8.11703 5.55633L8.91367 6.91586L6.33297 11.3202H4.27992C3.79416 11.3202 3.39992 11.7144 3.39992 12.2002C3.39992 12.6859 3.79416 13.0802 4.27992 13.0802H11.0612C11.1303 12.7444 11.0881 12.3804 10.8945 12.0438L10.8928 12.042C10.7225 11.7455 10.4863 11.5032 10.2113 11.3202H8.37312L11.7505 5.55547C11.996 5.13615 11.8553 4.597 11.4359 4.35148C11.0162 4.10596 10.4775 4.2467 10.232 4.66602L9.93375 5.17477L9.63554 4.66602C9.48182 4.40394 9.21362 4.25092 8.93172 4.23289ZM11.4566 7.77438L11.093 8.37852C10.6918 9.04556 10.6788 9.87117 11.0458 10.5527L13.8164 15.281C13.9801 15.5609 14.2738 15.7159 14.5761 15.7159C14.727 15.7159 14.8805 15.6774 15.0204 15.5955C15.4397 15.35 15.58 14.8109 15.3341 14.3916L14.5658 13.0802H15.7199C16.2057 13.0802 16.5999 12.6859 16.5999 12.2002C16.5999 11.7144 16.2057 11.3202 15.7199 11.3202H13.5345L11.4566 7.77438ZM5.43492 13.9619C5.18984 13.9548 4.95168 13.9929 4.72508 14.0641L4.52914 14.3976C4.28318 14.8165 4.42435 15.356 4.84367 15.6016C4.98359 15.6838 5.13619 15.7227 5.28711 15.7227C5.58939 15.7227 5.88353 15.5664 6.04765 15.287L6.52117 14.4792C6.26377 14.1787 5.88762 13.9751 5.4375 13.9619H5.43492Z" fill="white"/>
</svg>
