<svg width="23" height="23" viewBox="0 0 23 23" fill="none" xmlns="http://www.w3.org/2000/svg">
<path d="M11.5 0C5.15491 0 0 5.16316 0 11.5184C0 17.2876 4.24848 22.0621 9.78174 22.8947L10.3821 22.9857V13.9092H7.66531V12.0665H10.3821V9.61946C10.3821 8.1126 10.7431 7.12016 11.3407 6.49751C11.9384 5.87486 12.8215 5.56082 14.0503 5.56082C15.033 5.56082 15.4152 5.62045 15.7788 5.66512V7.17344H14.4996C13.7737 7.17344 13.1782 7.57906 12.8691 8.11933C12.56 8.6596 12.4638 9.30468 12.4638 9.96203V12.0655H15.6645L15.3796 13.9082H12.4638V23L13.057 22.9192C18.6689 22.1569 23 17.344 23 11.5184C23 5.16316 17.8451 0 11.5 0ZM11.5 1.04713C17.2801 1.04713 21.9545 5.72907 21.9545 11.5184C21.9545 16.6126 18.3142 20.8021 13.5092 21.7453V14.9553H16.276L16.8835 11.0184H13.5092V9.96203C13.5092 9.41885 13.6085 8.93215 13.7757 8.63983C13.9429 8.3475 14.1042 8.22057 14.4996 8.22057H16.8243V4.71719L16.371 4.65583C16.0574 4.61334 15.3416 4.51369 14.0503 4.51369C12.6374 4.51369 11.4245 4.89922 10.5873 5.77147C9.75004 6.64373 9.3366 7.94253 9.3366 9.61946V11.0194H6.61985V14.9563H9.3366V21.7126C4.60888 20.7095 1.04545 16.5574 1.04545 11.5184C1.04545 5.72907 5.71991 1.04713 11.5 1.04713Z" fill="white" fill-opacity="0.8"/>
</svg>
