<svg width="50" height="57" viewBox="0 0 50 57" fill="none" xmlns="http://www.w3.org/2000/svg">
<path d="M17.4404 1.87639C18.8327 1.07254 20.5481 1.07254 21.9404 1.87639L30.5439 6.84362C31.9362 7.64747 32.7939 9.13304 32.7939 10.7407V20.6752C32.7939 22.2829 31.9362 23.7685 30.5439 24.5723L21.9404 29.5395C20.5481 30.3434 18.8327 30.3434 17.4404 29.5395L8.83689 24.5723C7.44458 23.7685 6.58689 22.2829 6.58689 20.6752V10.7407C6.58689 9.13304 7.44459 7.64747 8.83689 6.84362L17.4404 1.87639Z" stroke="white"/>
<path d="M32.042 27.0976C33.4343 26.2938 35.1496 26.2938 36.542 27.0976L45.1454 32.0649C46.5378 32.8687 47.3954 34.3543 47.3954 35.962V45.8965C47.3954 47.5041 46.5378 48.9897 45.1454 49.7936L36.5419 54.7608C35.1496 55.5646 33.4343 55.5646 32.0419 54.7608L23.4385 49.7936C22.0461 48.9897 21.1885 47.5041 21.1885 45.8964V35.962C21.1885 34.3543 22.0461 32.8687 23.4385 32.0649L32.042 27.0976Z" stroke="white"/>
<path d="M40.5641 13.6882C41.3376 13.2416 42.2906 13.2416 43.0641 13.6882L46.3868 15.6066C47.1603 16.0532 47.6368 16.8785 47.6368 17.7717V21.6084C47.6368 22.5016 47.1603 23.3269 46.3868 23.7735L43.0641 25.6919C42.2906 26.1385 41.3376 26.1385 40.5641 25.6919L37.2413 23.7735C36.4678 23.3269 35.9913 22.5016 35.9913 21.6084V17.7717C35.9913 16.8785 36.4678 16.0532 37.2413 15.6066L40.5641 13.6882Z" fill="white" stroke="white"/>
<path d="M8.70575 29.175C9.47925 28.7284 10.4322 28.7284 11.2058 29.175L16.8277 32.4208C17.6012 32.8674 18.0777 33.6927 18.0777 34.5859V41.0776C18.0777 41.9707 17.6012 42.796 16.8277 43.2426L11.2058 46.4884C10.4323 46.935 9.47926 46.935 8.70575 46.4884L3.08382 43.2426C2.31032 42.796 1.83382 41.9707 1.83382 41.0776V34.5859C1.83382 33.6927 2.31031 32.8674 3.08382 32.4208L8.70575 29.175Z" stroke="white"/>
</svg>
