<svg width="50" height="53" viewBox="0 0 50 53" fill="none" xmlns="http://www.w3.org/2000/svg">
<path d="M49.5 38.0528C49.5 41.7037 46.8823 45.109 42.4313 47.6299C37.9952 50.1423 31.8334 51.7121 25 51.7121C18.1666 51.7121 12.0048 50.1423 7.56874 47.6299C3.11772 45.109 0.5 41.7037 0.5 38.0528C0.5 34.402 3.11772 30.9967 7.56874 28.4758C12.0048 25.9633 18.1666 24.3936 25 24.3936C31.8334 24.3936 37.9952 25.9633 42.4313 28.4758C46.8823 30.9967 49.5 34.402 49.5 38.0528Z" stroke="white"/>
<path d="M49.5 25.5C49.5 28.6604 46.925 31.6561 42.4541 33.8916C38.013 36.1121 31.8428 37.5 25 37.5C18.1572 37.5 11.987 36.1121 7.54594 33.8916C3.07498 31.6561 0.5 28.6604 0.5 25.5C0.5 22.3396 3.07498 19.3439 7.54594 17.1084C11.987 14.8879 18.1572 13.5 25 13.5C31.8428 13.5 38.013 14.8879 42.4541 17.1084C46.925 19.3439 49.5 22.3396 49.5 25.5Z" fill="#191B3D" stroke="white"/>
<circle cx="25.2213" cy="2.65487" r="2.65487" fill="white"/>
<circle cx="24.6549" cy="25.6549" r="2.65487" fill="white"/>
<circle cx="2.65487" cy="13.274" r="2.65487" fill="white"/>
<circle cx="47.3453" cy="13.274" r="2.65487" fill="white"/>
</svg>
