<svg width="113" height="21" viewBox="0 0 113 21" fill="none" xmlns="http://www.w3.org/2000/svg">
<path d="M0 20.0001V0.456055H12.572V3.08806H3.136V8.77206H11.704V11.4041H3.136V20.0001H0Z" fill="white"/>
<path d="M17.1251 20.0001V0.456055H20.2611V17.3681H29.1651V20.0001H17.1251Z" fill="white"/>
<path d="M35.678 0.456055V12.4681C35.678 13.2708 35.6967 13.9988 35.734 14.6521C35.79 15.3054 35.93 15.8654 36.154 16.3321C36.378 16.7801 36.714 17.1254 37.162 17.3681C37.61 17.6108 38.226 17.7321 39.01 17.7321C39.794 17.7321 40.41 17.6108 40.858 17.3681C41.306 17.1254 41.642 16.7801 41.866 16.3321C42.09 15.8654 42.2207 15.3054 42.258 14.6521C42.314 13.9988 42.342 13.2708 42.342 12.4681V0.456055H45.478V11.9081C45.478 13.3081 45.394 14.5401 45.226 15.6041C45.0767 16.6494 44.7687 17.5268 44.302 18.2361C43.8354 18.9268 43.1727 19.4494 42.314 19.8041C41.474 20.1588 40.3727 20.3361 39.01 20.3361C37.6474 20.3361 36.5367 20.1588 35.678 19.8041C34.838 19.4494 34.1847 18.9268 33.718 18.2361C33.2514 17.5268 32.934 16.6494 32.766 15.6041C32.6167 14.5401 32.542 13.3081 32.542 11.9081V0.456055H35.678Z" fill="white"/>
<path d="M49.5273 20.0001V0.456055H61.7633V3.08806H52.6633V8.77206H61.4273V11.4041H52.6633V17.3681H61.7633V20.0001H49.5273Z" fill="white"/>
<path d="M68.6405 4.96406H68.3885V20.0001H65.6445V0.456055H69.6765L75.4165 15.4921H75.6686V0.456055H78.4125V20.0001H74.3805L68.6405 4.96406Z" fill="white"/>
<path d="M95.5934 20.0001H81.4814V17.2281L91.7574 3.08806H81.8734V0.456055H95.2014V3.22806L84.9254 17.3681H95.5934V20.0001Z" fill="white"/>
<path d="M105.046 20.336C103.814 20.336 102.741 20.112 101.826 19.664C100.93 19.1973 100.184 18.5347 99.5859 17.676C99.0072 16.8173 98.5779 15.7627 98.2979 14.512C98.0179 13.2613 97.8779 11.8333 97.8779 10.228C97.8779 8.64133 98.0179 7.22266 98.2979 5.97199C98.5779 4.70266 99.0072 3.63866 99.5859 2.78C100.184 1.92133 100.93 1.268 101.826 0.819994C102.741 0.353328 103.814 0.119995 105.046 0.119995C106.278 0.119995 107.342 0.353328 108.238 0.819994C109.153 1.268 109.9 1.92133 110.478 2.78C111.076 3.63866 111.514 4.70266 111.794 5.97199C112.074 7.22266 112.214 8.64133 112.214 10.228C112.214 11.8333 112.074 13.2613 111.794 14.512C111.514 15.7627 111.076 16.8173 110.478 17.676C109.9 18.5347 109.153 19.1973 108.238 19.664C107.342 20.112 106.278 20.336 105.046 20.336ZM105.046 17.732C106.446 17.732 107.436 17.2093 108.014 16.164C108.593 15.1 108.882 13.6627 108.882 11.852V8.576C108.882 6.784 108.593 5.36533 108.014 4.32C107.436 3.256 106.446 2.72399 105.046 2.72399C103.646 2.72399 102.657 3.256 102.078 4.32C101.5 5.36533 101.21 6.784 101.21 8.576V11.88C101.21 13.672 101.5 15.1 102.078 16.164C102.657 17.2093 103.646 17.732 105.046 17.732Z" fill="white"/>
</svg>
