<svg width="117" height="21" viewBox="0 0 117 21" fill="none" xmlns="http://www.w3.org/2000/svg">
<path d="M0 20.0001V0.456055H13.017V3.08806H3.24701V8.77206H12.1183V11.4041H3.24701V20.0001H0Z" fill="white"/>
<path d="M17.7313 20.0001V0.456055H20.9783V17.3681H30.1975V20.0001H17.7313Z" fill="white"/>
<path d="M36.9409 0.456055V12.4681C36.9409 13.2708 36.9603 13.9988 36.9989 14.6521C37.0569 15.3054 37.2018 15.8654 37.4338 16.3321C37.6657 16.7801 38.0136 17.1254 38.4775 17.3681C38.9413 17.6108 39.5791 17.7321 40.3909 17.7321C41.2026 17.7321 41.8404 17.6108 42.3043 17.3681C42.7682 17.1254 43.116 16.7801 43.348 16.3321C43.5799 15.8654 43.7152 15.3054 43.7538 14.6521C43.8118 13.9988 43.8408 13.2708 43.8408 12.4681V0.456055H47.0878V11.9081C47.0878 13.3081 47.0009 14.5401 46.8269 15.6041C46.6723 16.6494 46.3534 17.5268 45.8702 18.2361C45.3871 18.9268 44.7009 19.4494 43.8118 19.8041C42.9421 20.1588 41.8018 20.3361 40.3909 20.3361C38.98 20.3361 37.83 20.1588 36.9409 19.8041C36.0712 19.4494 35.3948 18.9268 34.9116 18.2361C34.4284 17.5268 34.0998 16.6494 33.9259 15.6041C33.7713 14.5401 33.6939 13.3081 33.6939 11.9081V0.456055H36.9409Z" fill="white"/>
<path d="M51.2805 20.0001V0.456055H63.9497V3.08806H54.5275V8.77206H63.6018V11.4041H54.5275V17.3681H63.9497V20.0001H51.2805Z" fill="white"/>
<path d="M71.0703 4.96406H70.8094V20.0001H67.9682V0.456055H72.143L78.0861 15.4921H78.3472V0.456055H81.1882V20.0001H77.0135L71.0703 4.96406Z" fill="white"/>
<path d="M98.9773 20.0001H84.3657V17.2281L95.0055 3.08806H84.7716V0.456055H98.5714V3.22806L87.9317 17.3681H98.9773V20.0001Z" fill="white"/>
<path d="M108.764 20.3361C107.488 20.3361 106.377 20.1121 105.43 19.6641C104.502 19.1974 103.73 18.5348 103.111 17.6761C102.512 16.8174 102.067 15.7628 101.777 14.5121C101.488 13.2614 101.343 11.8334 101.343 10.2281C101.343 8.64145 101.488 7.22278 101.777 5.97211C102.067 4.70278 102.512 3.63878 103.111 2.78012C103.73 1.92145 104.502 1.26812 105.43 0.820116C106.377 0.35345 107.488 0.120117 108.764 0.120117C110.04 0.120117 111.141 0.35345 112.069 0.820116C113.016 1.26812 113.79 1.92145 114.388 2.78012C115.007 3.63878 115.461 4.70278 115.751 5.97211C116.041 7.22278 116.186 8.64145 116.186 10.2281C116.186 11.8334 116.041 13.2614 115.751 14.5121C115.461 15.7628 115.007 16.8174 114.388 17.6761C113.79 18.5348 113.016 19.1974 112.069 19.6641C111.141 20.1121 110.04 20.3361 108.764 20.3361ZM108.764 17.7321C110.214 17.7321 111.239 17.2094 111.837 16.1641C112.437 15.1001 112.736 13.6628 112.736 11.8521V8.57612C112.736 6.78412 112.437 5.36545 111.837 4.32012C111.239 3.25612 110.214 2.72411 108.764 2.72411C107.314 2.72411 106.29 3.25612 105.691 4.32012C105.092 5.36545 104.792 6.78412 104.792 8.57612V11.8801C104.792 13.6721 105.092 15.1001 105.691 16.1641C106.29 17.2094 107.314 17.7321 108.764 17.7321Z" fill="white"/>
</svg>
