<svg width="670" height="1034" viewBox="0 0 670 1034" fill="none" xmlns="http://www.w3.org/2000/svg">
<g filter="url(#filter0_bf_912_625)">
<path d="M-95.6527 718.02C-215.138 511.065 -143.243 245.864 64.9287 125.676C273.101 5.48752 167.638 348.115 287.123 555.07C406.609 762.024 705.795 754.936 497.623 875.125C289.451 995.313 23.8326 924.975 -95.6527 718.02Z" fill="url(#paint0_radial_912_625)"/>
<path d="M-95.6527 718.02C-215.138 511.065 -143.243 245.864 64.9287 125.676C273.101 5.48752 167.638 348.115 287.123 555.07C406.609 762.024 705.795 754.936 497.623 875.125C289.451 995.313 23.8326 924.975 -95.6527 718.02Z" fill="url(#paint1_radial_912_625)" fill-opacity="0.2"/>
</g>
<defs>
<filter id="filter0_bf_912_625" x="-253.402" y="0.757324" width="922.774" height="1033.05" filterUnits="userSpaceOnUse" color-interpolation-filters="sRGB">
<feFlood flood-opacity="0" result="BackgroundImageFix"/>
<feGaussianBlur in="BackgroundImage" stdDeviation="5"/>
<feComposite in2="SourceAlpha" operator="in" result="effect1_backgroundBlur_912_625"/>
<feBlend mode="normal" in="SourceGraphic" in2="effect1_backgroundBlur_912_625" result="shape"/>
<feGaussianBlur stdDeviation="50" result="effect2_foregroundBlur_912_625"/>
</filter>
<radialGradient id="paint0_radial_912_625" cx="0" cy="0" r="1" gradientUnits="userSpaceOnUse" gradientTransform="translate(320.091 567.63) rotate(-149.464) scale(241.909 302.224)">
<stop stop-color="#000AFF"/>
<stop offset="1" stop-color="#000AFF" stop-opacity="0"/>
</radialGradient>
<radialGradient id="paint1_radial_912_625" cx="0" cy="0" r="1" gradientUnits="userSpaceOnUse" gradientTransform="translate(156.796 522.49) rotate(-100.689) scale(412.81 203.58)">
<stop stop-color="white"/>
<stop offset="1" stop-color="white" stop-opacity="0"/>
</radialGradient>
</defs>
</svg>
