<svg width="434" height="560" viewBox="0 0 434 560" fill="none" xmlns="http://www.w3.org/2000/svg">
<g filter="url(#filter0_bf_912_627)">
<path d="M332.885 291.947C326.217 390.757 240.239 465.421 140.848 458.714C41.4572 452.007 156.865 358.449 163.533 259.639C170.2 160.829 65.6034 94.1844 164.995 100.891C264.386 107.598 339.553 193.137 332.885 291.947Z" fill="url(#paint0_radial_912_627)"/>
<path d="M332.885 291.947C326.217 390.757 240.239 465.421 140.848 458.714C41.4572 452.007 156.865 358.449 163.533 259.639C170.2 160.829 65.6034 94.1844 164.995 100.891C264.386 107.598 339.553 193.137 332.885 291.947Z" fill="url(#paint1_radial_912_627)" fill-opacity="0.2"/>
</g>
<defs>
<filter id="filter0_bf_912_627" x="0.655273" y="0.42749" width="432.642" height="558.705" filterUnits="userSpaceOnUse" color-interpolation-filters="sRGB">
<feFlood flood-opacity="0" result="BackgroundImageFix"/>
<feGaussianBlur in="BackgroundImage" stdDeviation="5"/>
<feComposite in2="SourceAlpha" operator="in" result="effect1_backgroundBlur_912_627"/>
<feBlend mode="normal" in="SourceGraphic" in2="effect1_backgroundBlur_912_627" result="shape"/>
<feGaussianBlur stdDeviation="50" result="effect2_foregroundBlur_912_627"/>
</filter>
<radialGradient id="paint0_radial_912_627" cx="0" cy="0" r="1" gradientUnits="userSpaceOnUse" gradientTransform="translate(155.087 247.704) rotate(64.396) scale(100.252 125.248)">
<stop stop-color="#A9ACF8"/>
<stop offset="1" stop-color="#A9ACF8" stop-opacity="0"/>
</radialGradient>
<radialGradient id="paint1_radial_912_627" cx="0" cy="0" r="1" gradientUnits="userSpaceOnUse" gradientTransform="translate(200.86 300.944) rotate(113.171) scale(171.078 84.3679)">
<stop stop-color="white"/>
<stop offset="1" stop-color="white" stop-opacity="0"/>
</radialGradient>
</defs>
</svg>
