<svg width="519" height="568" viewBox="0 0 519 568" fill="none" xmlns="http://www.w3.org/2000/svg">
<g filter="url(#filter0_bf_963_1827)">
<path d="M126.217 372.08C73.6298 280.997 105.271 164.279 196.89 111.383C288.509 58.4867 242.094 209.281 294.68 300.364C347.267 391.447 478.942 388.327 387.324 441.223C295.705 494.119 178.803 463.163 126.217 372.08Z" fill="url(#paint0_radial_963_1827)"/>
<path d="M126.217 372.08C73.6298 280.997 105.271 164.279 196.89 111.383C288.509 58.4867 242.094 209.281 294.68 300.364C347.267 391.447 478.942 388.327 387.324 441.223C295.705 494.119 178.803 463.163 126.217 372.08Z" fill="url(#paint1_radial_963_1827)" fill-opacity="0.2"/>
</g>
<defs>
<filter id="filter0_bf_963_1827" x="0.800781" y="0.415865" width="518.101" height="566.633" filterUnits="userSpaceOnUse" color-interpolation-filters="sRGB">
<feFlood flood-opacity="0" result="BackgroundImageFix"/>
<feGaussianBlur in="BackgroundImage" stdDeviation="5"/>
<feComposite in2="SourceAlpha" operator="in" result="effect1_backgroundBlur_963_1827"/>
<feBlend mode="normal" in="SourceGraphic" in2="effect1_backgroundBlur_963_1827" result="shape"/>
<feGaussianBlur stdDeviation="50" result="effect2_foregroundBlur_963_1827"/>
</filter>
<radialGradient id="paint0_radial_963_1827" cx="0" cy="0" r="1" gradientUnits="userSpaceOnUse" gradientTransform="translate(309.19 305.892) rotate(-149.464) scale(106.467 133.012)">
<stop stop-color="#AFC7F8"/>
<stop offset="1" stop-color="#AFC7F8" stop-opacity="0"/>
</radialGradient>
<radialGradient id="paint1_radial_963_1827" cx="0" cy="0" r="1" gradientUnits="userSpaceOnUse" gradientTransform="translate(237.322 286.025) rotate(-100.689) scale(181.682 89.5976)">
<stop stop-color="white"/>
<stop offset="1" stop-color="white" stop-opacity="0"/>
</radialGradient>
</defs>
</svg>
