<svg width="865" height="696" viewBox="0 0 865 696" fill="none" xmlns="http://www.w3.org/2000/svg">
<g filter="url(#filter0_bf_758_7)">
<path d="M549.708 571.811C374.955 640.524 177.259 553.728 108.142 377.947C39.0249 202.166 292.972 324.076 467.725 255.363C642.478 186.65 671.862 -46.6659 740.979 129.115C810.096 304.896 724.462 503.098 549.708 571.811Z" fill="url(#paint0_radial_758_7)"/>
<path d="M549.708 571.811C374.955 640.524 177.259 553.728 108.142 377.947C39.0249 202.166 292.972 324.076 467.725 255.363C642.478 186.65 671.862 -46.6659 740.979 129.115C810.096 304.896 724.462 503.098 549.708 571.811Z" fill="url(#paint1_radial_758_7)" fill-opacity="0.2"/>
</g>
<defs>
<filter id="filter0_bf_758_7" x="-3.49756" y="-35.1223" width="868.418" height="730.478" filterUnits="userSpaceOnUse" color-interpolation-filters="sRGB">
<feFlood flood-opacity="0" result="BackgroundImageFix"/>
<feGaussianBlur in="BackgroundImage" stdDeviation="5"/>
<feComposite in2="SourceAlpha" operator="in" result="effect1_backgroundBlur_758_7"/>
<feBlend mode="normal" in="SourceGraphic" in2="effect1_backgroundBlur_758_7" result="shape"/>
<feGaussianBlur stdDeviation="50" result="effect2_foregroundBlur_758_7"/>
</filter>
<radialGradient id="paint0_radial_758_7" cx="0" cy="0" r="1" gradientUnits="userSpaceOnUse" gradientTransform="translate(481.33 231.209) rotate(129.071) scale(190.086 237.48)">
<stop stop-color="#AFC7F8"/>
<stop offset="1" stop-color="#AFC7F8" stop-opacity="0"/>
</radialGradient>
<radialGradient id="paint1_radial_758_7" cx="0" cy="0" r="1" gradientUnits="userSpaceOnUse" gradientTransform="translate(427.209 352.837) rotate(177.846) scale(324.376 159.968)">
<stop stop-color="white"/>
<stop offset="1" stop-color="white" stop-opacity="0"/>
</radialGradient>
</defs>
</svg>
